<svg width="18" height="20" viewBox="0 0 18 20" fill="none" xmlns="http://www.w3.org/2000/svg">
<path fill-rule="evenodd" clip-rule="evenodd" d="M12.1131 6.74322C11.8645 6.50346 11.507 6.50895 11.3018 6.57856C11.4362 6.39712 11.7493 6.24826 11.8414 6.23022C11.9116 6.25918 12.1131 6.48687 12.1131 6.74322ZM13.1848 5.8086C13.007 4.77906 10.7965 5.46133 9.6832 5.02402C9.66191 5.32417 10.0259 5.80505 10.3742 5.98294C9.77898 6.54212 9.24463 7.66868 9.13668 9.04497C9.02921 7.66868 8.4948 6.54212 7.89962 5.98301C8.24778 5.80511 8.61217 5.32423 8.59052 5.02415C7.47732 5.46146 5.26674 4.77925 5.0886 5.80879C5.05115 6.02677 5.148 6.35874 5.2526 6.45427C5.27133 6.38521 5.36907 6.15929 5.67722 6.10868C7.2346 5.85398 8.53488 8.45191 7.36115 9.5023C7.34326 9.51843 7.3534 9.5478 7.37755 9.5478H10.8965C10.9204 9.5478 10.9305 9.51837 10.9129 9.50236C9.73884 8.45203 11.0391 5.8541 12.5966 6.10881C12.9049 6.15942 13.0024 6.38527 13.0212 6.45434C13.1258 6.35881 13.2226 6.02684 13.1849 5.80886L13.1848 5.8086ZM13.3532 3.35492C13.3263 3.25444 14.2035 3.2519 14.2035 3.89101C14.2035 4.31922 13.6788 4.52206 13.6788 4.96653C13.6788 5.1735 13.8701 5.32526 13.9288 5.32526C13.7936 4.61181 14.3525 4.9852 14.5034 5.11856C14.2035 4.15906 14.8785 4.16506 14.8121 3.72512C14.7659 3.41773 14.1791 3.51055 13.9668 3.35492C13.5899 3.07887 13.1441 2.00449 12.8503 3.07887C13.398 3.67064 13.0793 4.54179 12.384 4.54179C12.384 4.54179 12.3802 4.66948 12.3865 4.67962C13.2158 4.63241 13.5049 3.92295 13.3532 3.35492ZM3.4996 5.11884C3.65049 4.98548 4.20927 4.61209 4.07442 5.32554C4.13285 5.32554 4.32419 5.17378 4.32419 4.96681C4.32419 4.52234 3.79944 4.31951 3.79944 3.89131C3.79944 3.25221 4.67662 3.25474 4.64976 3.35522C4.49829 3.92331 4.78736 4.63276 5.61665 4.6799C5.62278 4.66977 5.61894 4.54201 5.61894 4.54201C4.92393 4.54201 4.60524 3.67094 5.15262 3.07911C4.85885 2.0048 4.41304 3.07911 4.03621 3.35516C3.82384 3.51085 3.23705 3.41797 3.19088 3.72541C3.12471 4.16549 3.7995 4.15948 3.49966 5.11897L3.4996 5.11884ZM5.8905 6.74322C6.13932 6.50346 6.49693 6.50895 6.70173 6.57856C6.56794 6.39712 6.2543 6.24826 6.16241 6.23022C6.09222 6.25918 5.89044 6.48687 5.89044 6.74322H5.8905ZM9.40907 1.08781L9.00351 0.5L8.59784 1.08781L9.0034 1.70634L9.40912 1.08781H9.40907ZM11.8426 2.76714L11.5722 2.3096L11.3018 2.76714L11.5721 3.21436L11.8427 2.76714H11.8426ZM14.275 14.2519L13.8695 13.7699L13.4638 14.2518L13.8695 14.6747L14.2751 14.2518L14.275 14.2519ZM6.70224 2.76714L6.43176 2.3096L6.16144 2.76714L6.43181 3.21436L6.70229 2.76714H6.70224ZM5.9245 4.72197H7.03823C7.97458 4.72197 8.39587 4.07415 8.52318 3.51238H9.47595C9.60332 4.07415 10.0244 4.7219 10.961 4.7219H12.0748C12.0748 4.7219 12.2696 4.42399 12.3184 4.27648C12.4943 3.74568 12.2696 3.49804 11.9416 3.49804L11.5177 3.93112L11.0938 3.49817C10.7659 3.49817 10.5411 3.74568 10.717 4.27655C10.7395 4.34437 10.7932 4.4441 10.8441 4.53176C10.4489 4.47057 9.94446 4.16563 9.83386 3.51238C9.83386 3.51238 10.1258 2.98962 10.1992 2.77804C10.4624 2.01715 10.1262 1.70618 9.63442 1.70618L8.99954 2.54728L8.36466 1.70618C7.8729 1.70618 7.5367 2.01715 7.80024 2.77804C7.8732 2.98962 8.16552 3.51245 8.16552 3.51245C8.05462 4.16563 7.55026 4.47057 7.15507 4.53183C7.20621 4.44403 7.25973 4.34437 7.28208 4.27648C7.45768 3.74568 7.2335 3.4981 6.90533 3.4981L6.48136 3.93119L6.05739 3.49824C5.72928 3.49824 5.50511 3.74575 5.6807 4.27662C5.72958 4.42406 5.92467 4.72203 5.92467 4.72203L5.9245 4.72197ZM17.3387 8.40669C17.1283 8.52573 15.8938 9.17199 14.3125 8.93293C14.3289 8.84864 14.3427 8.76377 14.3541 8.67846C15.4066 8.53776 16.2621 8.33825 16.8074 7.99935C17.4288 7.61276 17.7006 6.68991 17.3869 6.00345C17.3788 5.98614 17.3562 5.98302 17.345 5.99759C17.1731 6.21876 16.0922 7.53275 14.3893 7.94126C14.385 7.84266 14.3769 7.7443 14.3651 7.64646C15.1923 7.12229 15.9997 6.51831 16.3843 5.96604C16.9655 5.13107 16.912 4.06596 16.3589 3.52293C16.3532 3.5174 16.3456 3.51491 16.3381 3.5161C16.3306 3.51728 16.3239 3.52202 16.3198 3.5291C16.1448 3.85175 14.5069 6.81018 12.7086 8.08749C12.6867 8.10316 12.6646 8.11852 12.6423 8.13354C12.5907 8.16854 12.5851 8.24348 12.6289 8.28791C12.8364 8.49789 12.9652 8.79009 12.9652 9.11455C12.9652 9.67872 12.5761 10.1479 12.0618 10.2497C11.8005 10.3063 11.4233 10.2898 11.0608 10.1559C11.0445 10.15 11.0276 10.162 11.0276 10.1803V11.9668C11.0276 11.9956 11.0668 12.0027 11.076 11.9753C11.2963 11.323 11.9557 11.1844 12.2442 11.1844C12.3479 11.8815 12.5333 12.4589 12.7741 12.7697C13.1663 13.2746 13.8067 13.2676 14.0844 12.9184C14.0889 12.9126 14.0909 12.9048 14.0896 12.8972C14.0884 12.8896 14.0842 12.8831 14.0781 12.8794C13.915 12.7747 12.9815 12.1341 12.7947 11.0846C12.868 11.0567 12.9397 11.0238 13.0093 10.9859C13.3107 11.5432 13.7493 12.0395 14.1023 12.2291C14.6955 12.547 15.2384 12.3924 15.4792 11.927C15.4879 11.9106 15.4772 11.8901 15.4595 11.8883C15.0927 11.8556 13.9668 11.495 13.4874 10.6164C13.5428 10.5601 13.5958 10.5009 13.6461 10.4388C14.1478 10.8657 14.857 11.243 15.3648 11.32C15.9589 11.4103 16.6322 11.1983 16.6485 10.4262C16.6487 10.4108 16.6364 10.3981 16.6217 10.399C16.4104 10.4133 15.012 10.4813 14.0155 9.84206C14.0501 9.76851 14.0824 9.69361 14.1123 9.61751C14.1123 9.61751 15.618 10.0153 16.3314 9.88356C17.0404 9.75281 17.4556 9.16217 17.3755 8.42731C17.3731 8.40909 17.354 8.39823 17.3388 8.40688L17.3387 8.40669ZM3.88752 9.6174C3.91749 9.69352 3.94985 9.76845 3.98455 9.84202C2.98832 10.481 1.59045 10.4135 1.37822 10.399C1.36332 10.3981 1.35087 10.4114 1.35121 10.4265C1.3678 11.1984 2.04081 11.4103 2.635 11.32C3.14257 11.243 3.85213 10.8657 4.35371 10.4389C4.40406 10.5008 4.45701 10.5601 4.51239 10.6165C4.03275 11.495 2.907 11.8557 2.54018 11.8884C2.52242 11.8904 2.51206 11.9107 2.5205 11.9271C2.76131 12.3926 3.30427 12.5472 3.89771 12.2293C4.25045 12.0397 4.68905 11.5433 4.99028 10.986C5.05999 11.0238 5.13172 11.0568 5.20506 11.0847C5.01822 12.1343 4.08473 12.7748 3.92157 12.8797C3.91554 12.8834 3.91133 12.89 3.91013 12.8975C3.90892 12.9051 3.91083 12.9129 3.91534 12.9187C4.193 13.2678 4.83364 13.2749 5.22584 12.7699C5.46665 12.4591 5.65181 11.8817 5.75554 11.1846C6.04425 11.1846 6.70346 11.3231 6.92378 11.9754C6.93327 12.0029 6.97238 11.9958 6.97238 11.9669V10.1804C6.97238 10.1622 6.95521 10.1501 6.93891 10.156C6.57657 10.29 6.19926 10.3062 5.9382 10.2496C5.42364 10.148 5.03451 9.6788 5.03451 9.11467C5.03451 8.79032 5.16374 8.49778 5.37072 8.28786C5.41496 8.24363 5.40897 8.16869 5.3578 8.13369C5.33532 8.11867 5.313 8.10334 5.29086 8.0877C3.49363 6.81105 1.85658 3.8545 1.68009 3.52976C1.6759 3.5225 1.6691 3.51761 1.66145 3.51637C1.65379 3.51512 1.64603 3.51763 1.64016 3.52326C1.08788 4.06664 1.03421 5.13134 1.61542 5.96616C2.00006 6.51845 2.80753 7.12246 3.63437 7.64664C3.62272 7.74445 3.61476 7.84277 3.61051 7.94133C1.90891 7.53319 0.828854 6.22135 0.655277 5.99862C0.643635 5.98339 0.620643 5.98645 0.612785 6.00382C0.299625 6.69077 0.571457 7.61288 1.19231 7.99949C1.7376 8.33841 2.5932 8.53792 3.64567 8.67863C3.65704 8.76394 3.67092 8.84882 3.68728 8.93311C2.10751 9.17185 0.873616 8.52706 0.661505 8.4071C0.645789 8.39812 0.626697 8.40925 0.624718 8.42779C0.544798 9.16262 0.959764 9.7527 1.66874 9.88352C2.38197 10.0153 3.88764 9.61746 3.88764 9.61746L3.88752 9.6174ZM13.7862 15.2032L13.233 14.7148C13.0123 14.8624 12.8501 15.0966 12.7871 15.3711C12.4543 15.4233 11.5473 15.1973 11.6355 15.0473C12.6296 13.4781 11.8692 12.5438 10.9554 12.5958V13.6495C10.9554 13.988 10.6922 14.2623 10.368 14.2623H9.73689C9.28421 14.2623 8.9895 14.773 8.9895 14.773C8.9895 14.773 8.6948 14.2623 8.24212 14.2623H7.6111C7.28658 14.2623 7.02398 13.988 7.02398 13.6495V12.5958C6.11011 12.5438 5.34916 13.478 6.34355 15.0472C6.43098 15.1957 5.49863 15.4333 5.06133 15.3732C4.94607 15.2391 4.77988 15.1546 4.5938 15.1546C4.51467 15.1546 4.43619 15.1705 4.362 15.2013C4.362 15.2013 2.64353 13.3753 2.61208 13.3575L2.62616 13.3206C2.72416 13.1151 2.57434 12.8912 2.47963 12.907C2.58966 12.7588 2.59476 12.1104 1.98434 11.9604C2.00224 12.0907 2.01134 12.3565 2.01134 12.3565C2.01134 12.3565 1.54023 12.0707 1.30362 12.3174C1.09577 12.5935 1.38419 13.0945 1.38419 13.0945C1.38419 13.0945 1.14312 13.1011 1.02429 13.0897C1.19899 13.7529 1.785 13.706 1.91175 13.5751C1.90354 13.6805 2.11538 13.8308 2.29495 13.7103L2.37382 13.6675C2.38773 13.6884 4.06143 15.4631 4.06143 15.4631C3.98455 15.5911 3.94799 15.7482 3.97323 15.9158C4.01295 16.1775 4.2072 16.3945 4.45542 16.4509C4.63071 16.4904 4.79549 16.4522 4.92765 16.3654L5.3707 16.8269C5.41002 16.8671 5.46342 16.8921 5.52293 16.8874C5.63131 16.8792 5.71247 16.7807 5.70426 16.6676C5.70073 16.6166 5.6775 16.5728 5.64545 16.5395C5.63841 16.5308 5.19418 16.068 5.19418 16.068C5.56066 15.7797 6.24343 15.5765 6.81008 15.5765C6.9096 15.5765 6.95643 15.482 6.92216 15.3893C6.66542 14.6965 7.21734 14.1945 7.78832 14.6031C8.03737 14.7812 8.29035 15.1322 8.48096 15.7177C7.5442 15.9723 6.36796 16.6736 6.13 17.4391C6.03834 17.7347 6.34102 18.1376 6.70861 18.2187C6.71511 18.2203 6.72191 18.2189 6.7275 18.2148C6.73309 18.2108 6.737 18.2044 6.73837 18.1971C6.93038 17.0542 8.02552 16.2026 8.59533 16.058C8.62391 16.1441 8.61458 16.1162 8.64321 16.202C8.02258 16.5314 7.42073 17.2261 7.24891 18.052C7.16998 18.4303 7.54584 18.7712 7.8561 18.8645C7.87171 18.8691 7.88703 18.857 7.88791 18.8402C7.94688 17.7957 8.35784 16.9086 8.72602 16.5051C8.7361 16.584 8.74368 16.6633 8.74873 16.7428C8.74873 16.7428 8.37175 17.9215 8.37175 18.7816C8.37175 19.1817 8.90165 19.461 8.97988 19.5001C9.0777 19.461 9.6072 19.1817 9.6072 18.7816C9.6072 17.9215 9.23034 16.7427 9.23034 16.7427C9.23548 16.6632 9.24316 16.5839 9.25334 16.505C9.62128 16.9087 10.0325 17.7953 10.0912 18.8398C10.0919 18.8481 10.0958 18.8557 10.1019 18.8605C10.1081 18.8652 10.1157 18.8667 10.1229 18.8645C10.4336 18.7712 10.8091 18.4303 10.7305 18.052C10.5583 17.2262 9.95677 16.5314 9.3362 16.202C9.36454 16.1162 9.35515 16.144 9.38385 16.0579C9.95396 16.2026 11.0487 17.0542 11.2408 18.197C11.2437 18.2122 11.257 18.2218 11.2705 18.2185C11.6379 18.1375 11.941 17.7345 11.8488 17.439C11.6115 16.6735 10.4349 15.9721 9.49799 15.7176C9.68894 15.1321 9.94198 14.7811 10.191 14.603C10.7617 14.1944 11.3136 14.6963 11.0569 15.3892C11.0226 15.4818 11.0691 15.5764 11.169 15.5764C11.81 15.5764 12.5997 15.8362 12.9122 16.1847C13.1119 16.521 13.4808 16.7361 13.8972 16.69C14.3703 16.638 14.7561 16.2392 14.8094 15.746C14.8559 15.314 14.6568 14.9261 14.3394 14.7147L13.7861 15.2032L13.7862 15.2032ZM9.64783 12.0636C9.83661 11.9849 10.1325 12.0486 10.1225 12.3546C10.1201 12.424 10.2067 12.424 10.213 12.3531C10.2695 11.8948 9.99374 11.7629 9.70511 11.8166C9.66925 11.659 9.6399 11.5212 9.60651 11.3848C9.57986 11.2743 9.57008 11.0669 9.68392 11.0669C9.74531 11.0669 9.72063 11.2598 9.71484 11.3429C9.70978 11.4158 9.73311 11.46 9.78584 11.462C9.81868 11.4636 9.85971 11.4165 9.88423 11.3852C10.0494 11.1754 10.0877 10.8507 9.89423 10.6941C9.73232 10.5626 9.32688 10.6604 9.21545 10.8477C9.19859 10.7772 9.1182 10.6607 9.07963 10.61C9.04213 10.5605 9.03241 10.5266 9.08424 10.4831C9.1087 10.462 9.18262 10.3795 9.18262 10.2942C9.18262 10.2439 9.14777 10.1508 9.03724 10.1508C8.94999 10.1508 8.85301 10.2186 8.85301 10.3699C8.85301 10.4035 8.86032 10.4395 8.87961 10.4783C8.82451 10.468 8.67475 10.4722 8.59784 10.4935L9.6611 13.7698C9.96546 13.6012 10.1886 13.3341 10.1886 13.0474C10.1886 12.8031 9.86815 12.8842 9.71253 13.0748C9.6625 12.765 9.61798 12.479 9.56929 12.1939C9.55602 12.1152 9.59161 12.087 9.64783 12.0633V12.0636ZM8.23228 9.93063L8.46039 10.6277C8.26511 10.6789 7.95101 10.8355 7.95101 11.0429C7.95101 11.3191 8.3953 11.4989 8.65211 11.4773C8.63937 11.5404 8.65406 11.5965 8.69402 11.6478C8.60079 11.6478 8.42492 11.6956 8.36717 11.764C8.23096 11.6245 8.01788 11.5736 7.91657 11.6586C7.81479 11.7442 7.81175 11.8892 7.918 12.0531C7.99205 12.1666 8.01983 12.2785 7.9366 12.41C8.24617 12.41 8.13217 11.9672 8.25346 11.9672C8.23756 12.0531 8.24726 12.1524 8.2825 12.2626C8.30581 12.3359 8.30581 12.3879 8.26586 12.4584C8.16598 12.634 8.01065 13.0374 8.03166 13.4022C7.93017 13.4016 7.87857 13.3743 7.91433 13.2218C7.92764 13.1651 7.89579 13.1245 7.8536 13.1945C7.80699 13.2717 7.78448 13.4035 7.78448 13.4598C7.78448 13.7846 8.13636 13.8501 8.27056 13.7814C8.659 14.195 9.42204 14.0846 9.67748 13.9458L8.33411 9.89116C8.30667 9.81457 8.20817 9.85119 8.23228 9.93075V9.93063ZM8.05463 13.4679C8.02845 13.2675 8.22737 12.9091 8.48044 12.5632C8.42657 12.7886 8.46005 13.177 8.56568 13.3108C8.38211 13.3108 8.16409 13.3591 8.05457 13.4679H8.05463Z" fill="#9199B5"/>
<mask id="mask0" mask-type="alpha" maskUnits="userSpaceOnUse" x="0" y="0" width="18" height="20">
<path fill-rule="evenodd" clip-rule="evenodd" d="M12.1131 6.74322C11.8645 6.50346 11.507 6.50895 11.3018 6.57856C11.4362 6.39712 11.7493 6.24826 11.8414 6.23022C11.9116 6.25918 12.1131 6.48687 12.1131 6.74322ZM13.1848 5.8086C13.007 4.77906 10.7965 5.46133 9.6832 5.02402C9.66191 5.32417 10.0259 5.80505 10.3742 5.98294C9.77898 6.54212 9.24463 7.66868 9.13668 9.04497C9.02921 7.66868 8.4948 6.54212 7.89962 5.98301C8.24778 5.80511 8.61217 5.32423 8.59052 5.02415C7.47732 5.46146 5.26674 4.77925 5.0886 5.80879C5.05115 6.02677 5.148 6.35874 5.2526 6.45427C5.27133 6.38521 5.36907 6.15929 5.67722 6.10868C7.2346 5.85398 8.53488 8.45191 7.36115 9.5023C7.34326 9.51843 7.3534 9.5478 7.37755 9.5478H10.8965C10.9204 9.5478 10.9305 9.51837 10.9129 9.50236C9.73884 8.45203 11.0391 5.8541 12.5966 6.10881C12.9049 6.15942 13.0024 6.38527 13.0212 6.45434C13.1258 6.35881 13.2226 6.02684 13.1849 5.80886L13.1848 5.8086ZM13.3532 3.35492C13.3263 3.25444 14.2035 3.2519 14.2035 3.89101C14.2035 4.31922 13.6788 4.52206 13.6788 4.96653C13.6788 5.1735 13.8701 5.32526 13.9288 5.32526C13.7936 4.61181 14.3525 4.9852 14.5034 5.11856C14.2035 4.15906 14.8785 4.16506 14.8121 3.72512C14.7659 3.41773 14.1791 3.51055 13.9668 3.35492C13.5899 3.07887 13.1441 2.00449 12.8503 3.07887C13.398 3.67064 13.0793 4.54179 12.384 4.54179C12.384 4.54179 12.3802 4.66948 12.3865 4.67962C13.2158 4.63241 13.5049 3.92295 13.3532 3.35492ZM3.4996 5.11884C3.65049 4.98548 4.20927 4.61209 4.07442 5.32554C4.13285 5.32554 4.32419 5.17378 4.32419 4.96681C4.32419 4.52234 3.79944 4.31951 3.79944 3.89131C3.79944 3.25221 4.67662 3.25474 4.64976 3.35522C4.49829 3.92331 4.78736 4.63276 5.61665 4.6799C5.62278 4.66977 5.61894 4.54201 5.61894 4.54201C4.92393 4.54201 4.60524 3.67094 5.15262 3.07911C4.85885 2.0048 4.41304 3.07911 4.03621 3.35516C3.82384 3.51085 3.23705 3.41797 3.19088 3.72541C3.12471 4.16549 3.7995 4.15948 3.49966 5.11897L3.4996 5.11884ZM5.8905 6.74322C6.13932 6.50346 6.49693 6.50895 6.70173 6.57856C6.56794 6.39712 6.2543 6.24826 6.16241 6.23022C6.09222 6.25918 5.89044 6.48687 5.89044 6.74322H5.8905ZM9.40907 1.08781L9.00351 0.5L8.59784 1.08781L9.0034 1.70634L9.40912 1.08781H9.40907ZM11.8426 2.76714L11.5722 2.3096L11.3018 2.76714L11.5721 3.21436L11.8427 2.76714H11.8426ZM14.275 14.2519L13.8695 13.7699L13.4638 14.2518L13.8695 14.6747L14.2751 14.2518L14.275 14.2519ZM6.70224 2.76714L6.43176 2.3096L6.16144 2.76714L6.43181 3.21436L6.70229 2.76714H6.70224ZM5.9245 4.72197H7.03823C7.97458 4.72197 8.39587 4.07415 8.52318 3.51238H9.47595C9.60332 4.07415 10.0244 4.7219 10.961 4.7219H12.0748C12.0748 4.7219 12.2696 4.42399 12.3184 4.27648C12.4943 3.74568 12.2696 3.49804 11.9416 3.49804L11.5177 3.93112L11.0938 3.49817C10.7659 3.49817 10.5411 3.74568 10.717 4.27655C10.7395 4.34437 10.7932 4.4441 10.8441 4.53176C10.4489 4.47057 9.94446 4.16563 9.83386 3.51238C9.83386 3.51238 10.1258 2.98962 10.1992 2.77804C10.4624 2.01715 10.1262 1.70618 9.63442 1.70618L8.99954 2.54728L8.36466 1.70618C7.8729 1.70618 7.5367 2.01715 7.80024 2.77804C7.8732 2.98962 8.16552 3.51245 8.16552 3.51245C8.05462 4.16563 7.55026 4.47057 7.15507 4.53183C7.20621 4.44403 7.25973 4.34437 7.28208 4.27648C7.45768 3.74568 7.2335 3.4981 6.90533 3.4981L6.48136 3.93119L6.05739 3.49824C5.72928 3.49824 5.50511 3.74575 5.6807 4.27662C5.72958 4.42406 5.92467 4.72203 5.92467 4.72203L5.9245 4.72197ZM17.3387 8.40669C17.1283 8.52573 15.8938 9.17199 14.3125 8.93293C14.3289 8.84864 14.3427 8.76377 14.3541 8.67846C15.4066 8.53776 16.2621 8.33825 16.8074 7.99935C17.4288 7.61276 17.7006 6.68991 17.3869 6.00345C17.3788 5.98614 17.3562 5.98302 17.345 5.99759C17.1731 6.21876 16.0922 7.53275 14.3893 7.94126C14.385 7.84266 14.3769 7.7443 14.3651 7.64646C15.1923 7.12229 15.9997 6.51831 16.3843 5.96604C16.9655 5.13107 16.912 4.06596 16.3589 3.52293C16.3532 3.5174 16.3456 3.51491 16.3381 3.5161C16.3306 3.51728 16.3239 3.52202 16.3198 3.5291C16.1448 3.85175 14.5069 6.81018 12.7086 8.08749C12.6867 8.10316 12.6646 8.11852 12.6423 8.13354C12.5907 8.16854 12.5851 8.24348 12.6289 8.28791C12.8364 8.49789 12.9652 8.79009 12.9652 9.11455C12.9652 9.67872 12.5761 10.1479 12.0618 10.2497C11.8005 10.3063 11.4233 10.2898 11.0608 10.1559C11.0445 10.15 11.0276 10.162 11.0276 10.1803V11.9668C11.0276 11.9956 11.0668 12.0027 11.076 11.9753C11.2963 11.323 11.9557 11.1844 12.2442 11.1844C12.3479 11.8815 12.5333 12.4589 12.7741 12.7697C13.1663 13.2746 13.8067 13.2676 14.0844 12.9184C14.0889 12.9126 14.0909 12.9048 14.0896 12.8972C14.0884 12.8896 14.0842 12.8831 14.0781 12.8794C13.915 12.7747 12.9815 12.1341 12.7947 11.0846C12.868 11.0567 12.9397 11.0238 13.0093 10.9859C13.3107 11.5432 13.7493 12.0395 14.1023 12.2291C14.6955 12.547 15.2384 12.3924 15.4792 11.927C15.4879 11.9106 15.4772 11.8901 15.4595 11.8883C15.0927 11.8556 13.9668 11.495 13.4874 10.6164C13.5428 10.5601 13.5958 10.5009 13.6461 10.4388C14.1478 10.8657 14.857 11.243 15.3648 11.32C15.9589 11.4103 16.6322 11.1983 16.6485 10.4262C16.6487 10.4108 16.6364 10.3981 16.6217 10.399C16.4104 10.4133 15.012 10.4813 14.0155 9.84206C14.0501 9.76851 14.0824 9.69361 14.1123 9.61751C14.1123 9.61751 15.618 10.0153 16.3314 9.88356C17.0404 9.75281 17.4556 9.16217 17.3755 8.42731C17.3731 8.40909 17.354 8.39823 17.3388 8.40688L17.3387 8.40669ZM3.88752 9.6174C3.91749 9.69352 3.94985 9.76845 3.98455 9.84202C2.98832 10.481 1.59045 10.4135 1.37822 10.399C1.36332 10.3981 1.35087 10.4114 1.35121 10.4265C1.3678 11.1984 2.04081 11.4103 2.635 11.32C3.14257 11.243 3.85213 10.8657 4.35371 10.4389C4.40406 10.5008 4.45701 10.5601 4.51239 10.6165C4.03275 11.495 2.907 11.8557 2.54018 11.8884C2.52242 11.8904 2.51206 11.9107 2.5205 11.9271C2.76131 12.3926 3.30427 12.5472 3.89771 12.2293C4.25045 12.0397 4.68905 11.5433 4.99028 10.986C5.05999 11.0238 5.13172 11.0568 5.20506 11.0847C5.01822 12.1343 4.08473 12.7748 3.92157 12.8797C3.91554 12.8834 3.91133 12.89 3.91013 12.8975C3.90892 12.9051 3.91083 12.9129 3.91534 12.9187C4.193 13.2678 4.83364 13.2749 5.22584 12.7699C5.46665 12.4591 5.65181 11.8817 5.75554 11.1846C6.04425 11.1846 6.70346 11.3231 6.92378 11.9754C6.93327 12.0029 6.97238 11.9958 6.97238 11.9669V10.1804C6.97238 10.1622 6.95521 10.1501 6.93891 10.156C6.57657 10.29 6.19926 10.3062 5.9382 10.2496C5.42364 10.148 5.03451 9.6788 5.03451 9.11467C5.03451 8.79032 5.16374 8.49778 5.37072 8.28786C5.41496 8.24363 5.40897 8.16869 5.3578 8.13369C5.33532 8.11867 5.313 8.10334 5.29086 8.0877C3.49363 6.81105 1.85658 3.8545 1.68009 3.52976C1.6759 3.5225 1.6691 3.51761 1.66145 3.51637C1.65379 3.51512 1.64603 3.51763 1.64016 3.52326C1.08788 4.06664 1.03421 5.13134 1.61542 5.96616C2.00006 6.51845 2.80753 7.12246 3.63437 7.64664C3.62272 7.74445 3.61476 7.84277 3.61051 7.94133C1.90891 7.53319 0.828854 6.22135 0.655277 5.99862C0.643635 5.98339 0.620643 5.98645 0.612785 6.00382C0.299625 6.69077 0.571457 7.61288 1.19231 7.99949C1.7376 8.33841 2.5932 8.53792 3.64567 8.67863C3.65704 8.76394 3.67092 8.84882 3.68728 8.93311C2.10751 9.17185 0.873616 8.52706 0.661505 8.4071C0.645789 8.39812 0.626697 8.40925 0.624718 8.42779C0.544798 9.16262 0.959764 9.7527 1.66874 9.88352C2.38197 10.0153 3.88764 9.61746 3.88764 9.61746L3.88752 9.6174ZM13.7862 15.2032L13.233 14.7148C13.0123 14.8624 12.8501 15.0966 12.7871 15.3711C12.4543 15.4233 11.5473 15.1973 11.6355 15.0473C12.6296 13.4781 11.8692 12.5438 10.9554 12.5958V13.6495C10.9554 13.988 10.6922 14.2623 10.368 14.2623H9.73689C9.28421 14.2623 8.9895 14.773 8.9895 14.773C8.9895 14.773 8.6948 14.2623 8.24212 14.2623H7.6111C7.28658 14.2623 7.02398 13.988 7.02398 13.6495V12.5958C6.11011 12.5438 5.34916 13.478 6.34355 15.0472C6.43098 15.1957 5.49863 15.4333 5.06133 15.3732C4.94607 15.2391 4.77988 15.1546 4.5938 15.1546C4.51467 15.1546 4.43619 15.1705 4.362 15.2013C4.362 15.2013 2.64353 13.3753 2.61208 13.3575L2.62616 13.3206C2.72416 13.1151 2.57434 12.8912 2.47963 12.907C2.58966 12.7588 2.59476 12.1104 1.98434 11.9604C2.00224 12.0907 2.01134 12.3565 2.01134 12.3565C2.01134 12.3565 1.54023 12.0707 1.30362 12.3174C1.09577 12.5935 1.38419 13.0945 1.38419 13.0945C1.38419 13.0945 1.14312 13.1011 1.02429 13.0897C1.19899 13.7529 1.785 13.706 1.91175 13.5751C1.90354 13.6805 2.11538 13.8308 2.29495 13.7103L2.37382 13.6675C2.38773 13.6884 4.06143 15.4631 4.06143 15.4631C3.98455 15.5911 3.94799 15.7482 3.97323 15.9158C4.01295 16.1775 4.2072 16.3945 4.45542 16.4509C4.63071 16.4904 4.79549 16.4522 4.92765 16.3654L5.3707 16.8269C5.41002 16.8671 5.46342 16.8921 5.52293 16.8874C5.63131 16.8792 5.71247 16.7807 5.70426 16.6676C5.70073 16.6166 5.6775 16.5728 5.64545 16.5395C5.63841 16.5308 5.19418 16.068 5.19418 16.068C5.56066 15.7797 6.24343 15.5765 6.81008 15.5765C6.9096 15.5765 6.95643 15.482 6.92216 15.3893C6.66542 14.6965 7.21734 14.1945 7.78832 14.6031C8.03737 14.7812 8.29035 15.1322 8.48096 15.7177C7.5442 15.9723 6.36796 16.6736 6.13 17.4391C6.03834 17.7347 6.34102 18.1376 6.70861 18.2187C6.71511 18.2203 6.72191 18.2189 6.7275 18.2148C6.73309 18.2108 6.737 18.2044 6.73837 18.1971C6.93038 17.0542 8.02552 16.2026 8.59533 16.058C8.62391 16.1441 8.61458 16.1162 8.64321 16.202C8.02258 16.5314 7.42073 17.2261 7.24891 18.052C7.16998 18.4303 7.54584 18.7712 7.8561 18.8645C7.87171 18.8691 7.88703 18.857 7.88791 18.8402C7.94688 17.7957 8.35784 16.9086 8.72602 16.5051C8.7361 16.584 8.74368 16.6633 8.74873 16.7428C8.74873 16.7428 8.37175 17.9215 8.37175 18.7816C8.37175 19.1817 8.90165 19.461 8.97988 19.5001C9.0777 19.461 9.6072 19.1817 9.6072 18.7816C9.6072 17.9215 9.23034 16.7427 9.23034 16.7427C9.23548 16.6632 9.24316 16.5839 9.25334 16.505C9.62128 16.9087 10.0325 17.7953 10.0912 18.8398C10.0919 18.8481 10.0958 18.8557 10.1019 18.8605C10.1081 18.8652 10.1157 18.8667 10.1229 18.8645C10.4336 18.7712 10.8091 18.4303 10.7305 18.052C10.5583 17.2262 9.95677 16.5314 9.3362 16.202C9.36454 16.1162 9.35515 16.144 9.38385 16.0579C9.95396 16.2026 11.0487 17.0542 11.2408 18.197C11.2437 18.2122 11.257 18.2218 11.2705 18.2185C11.6379 18.1375 11.941 17.7345 11.8488 17.439C11.6115 16.6735 10.4349 15.9721 9.49799 15.7176C9.68894 15.1321 9.94198 14.7811 10.191 14.603C10.7617 14.1944 11.3136 14.6963 11.0569 15.3892C11.0226 15.4818 11.0691 15.5764 11.169 15.5764C11.81 15.5764 12.5997 15.8362 12.9122 16.1847C13.1119 16.521 13.4808 16.7361 13.8972 16.69C14.3703 16.638 14.7561 16.2392 14.8094 15.746C14.8559 15.314 14.6568 14.9261 14.3394 14.7147L13.7861 15.2032L13.7862 15.2032ZM9.64783 12.0636C9.83661 11.9849 10.1325 12.0486 10.1225 12.3546C10.1201 12.424 10.2067 12.424 10.213 12.3531C10.2695 11.8948 9.99374 11.7629 9.70511 11.8166C9.66925 11.659 9.6399 11.5212 9.60651 11.3848C9.57986 11.2743 9.57008 11.0669 9.68392 11.0669C9.74531 11.0669 9.72063 11.2598 9.71484 11.3429C9.70978 11.4158 9.73311 11.46 9.78584 11.462C9.81868 11.4636 9.85971 11.4165 9.88423 11.3852C10.0494 11.1754 10.0877 10.8507 9.89423 10.6941C9.73232 10.5626 9.32688 10.6604 9.21545 10.8477C9.19859 10.7772 9.1182 10.6607 9.07963 10.61C9.04213 10.5605 9.03241 10.5266 9.08424 10.4831C9.1087 10.462 9.18262 10.3795 9.18262 10.2942C9.18262 10.2439 9.14777 10.1508 9.03724 10.1508C8.94999 10.1508 8.85301 10.2186 8.85301 10.3699C8.85301 10.4035 8.86032 10.4395 8.87961 10.4783C8.82451 10.468 8.67475 10.4722 8.59784 10.4935L9.6611 13.7698C9.96546 13.6012 10.1886 13.3341 10.1886 13.0474C10.1886 12.8031 9.86815 12.8842 9.71253 13.0748C9.6625 12.765 9.61798 12.479 9.56929 12.1939C9.55602 12.1152 9.59161 12.087 9.64783 12.0633V12.0636ZM8.23228 9.93063L8.46039 10.6277C8.26511 10.6789 7.95101 10.8355 7.95101 11.0429C7.95101 11.3191 8.3953 11.4989 8.65211 11.4773C8.63937 11.5404 8.65406 11.5965 8.69402 11.6478C8.60079 11.6478 8.42492 11.6956 8.36717 11.764C8.23096 11.6245 8.01788 11.5736 7.91657 11.6586C7.81479 11.7442 7.81175 11.8892 7.918 12.0531C7.99205 12.1666 8.01983 12.2785 7.9366 12.41C8.24617 12.41 8.13217 11.9672 8.25346 11.9672C8.23756 12.0531 8.24726 12.1524 8.2825 12.2626C8.30581 12.3359 8.30581 12.3879 8.26586 12.4584C8.16598 12.634 8.01065 13.0374 8.03166 13.4022C7.93017 13.4016 7.87857 13.3743 7.91433 13.2218C7.92764 13.1651 7.89579 13.1245 7.8536 13.1945C7.80699 13.2717 7.78448 13.4035 7.78448 13.4598C7.78448 13.7846 8.13636 13.8501 8.27056 13.7814C8.659 14.195 9.42204 14.0846 9.67748 13.9458L8.33411 9.89116C8.30667 9.81457 8.20817 9.85119 8.23228 9.93075V9.93063ZM8.05463 13.4679C8.02845 13.2675 8.22737 12.9091 8.48044 12.5632C8.42657 12.7886 8.46005 13.177 8.56568 13.3108C8.38211 13.3108 8.16409 13.3591 8.05457 13.4679H8.05463Z" fill="white"/>
</mask>
<g mask="url(#mask0)">
<rect x="0.482117" y="0.50061" width="17.0369" height="18.9999" fill="#9199B5"/>
</g>
</svg>
